PathFileType	4	(X/Y/Z)	./resultDataOpenSim/trcMotMarkerGrf/sub10/qtm-14-06.trc
DataRate	CameraRate	NumFrames	NumMarkers	Units	OrigDataRate	OrigDataStartFrame	OrigNumFrames
250.000000	250.000000	7	24	m	250.000000	62	488
Frame#	Time	L.Toe.Tip			R.Toe.Tip			L.Ankle.Lat			R.Ankle.Lat			L.Ankle.Med			R.Ankle.Med			L.Heel			R.Heel			L.Knee.Lat			R.Knee.Lat			L.Knee.Med			R.Knee.Med			L.Thigh.Upper			R.Thigh.Upper			L.ASIS			R.ASIS			V.Sacral			L.Acromium			R.Acromium			C7			L.Elbow			R.Elbow			L.Wrist.Lat			R.Wrist.Lat
		X1	Y1	Z1	X2	Y2	Z2	X3	Y3	Z3	X4	Y4	Z4	X5	Y5	Z5	X6	Y6	Z6	X7	Y7	Z7	X8	Y8	Z8	X9	Y9	Z9	X10	Y10	Z10	X11	Y11	Z11	X12	Y12	Z12	X13	Y13	Z13	X14	Y14	Z14	X15	Y15	Z15	X16	Y16	Z16	X17	Y17	Z17	X18	Y18	Z18	X19	Y19	Z19	X20	Y20	Z20	X21	Y21	Z21	X22	Y22	Z22	X23	Y23	Z23	X24	Y24	Z24

62	0.244	-1.1133247	0.076809395	-0.1710427	-0.66193528	0.038092257	-0.021266172	-1.1397528	0.21605227	-0.1788204	-0.79922064	0.053903519	0.024665331	-1.0975085	0.2087093	-0.10657623	-0.78711241	0.082074949	-0.06048061	-1.183503	0.25049079	-0.11891922	-0.85484501	0.031266818	-0.018980332	-0.84059474	0.43480079	-0.23481533	-0.74524979	0.45184548	0.065469901	-0.80719874	0.39449274	-0.12450371	-0.74393003	0.4604087	-0.06381205	-0.85731932	0.81353297	-0.24658614	-0.78742015	0.86513686	0.13237948	-0.79038312	0.92590728	-0.19902532	-0.73969103	0.95566479	0.040841052	-0.96008821	0.94822271	-0.037619662	-0.84213673	1.4123587	-0.2079618	-0.84993306	1.4004838	0.11375182	-0.93191639	1.4344258	-0.04763714	-0.90522823	1.0715773	-0.2646856	-0.96504911	1.0751326	0.1505651	-0.71824893	0.90704032	-0.26182898	-0.89491097	0.8535905	0.22634763
63	0.248	-1.0982725	0.077092637	-0.1721811	-0.66224568	0.038230124	-0.020950314	-1.1265163	0.21545629	-0.17861569	-0.79901221	0.054017319	0.024590707	-1.0842691	0.20812265	-0.10634538	-0.7874463	0.082321915	-0.060213223	-1.1711166	0.2487597	-0.11799275	-0.85488377	0.031354803	-0.019028326	-0.82936977	0.43654507	-0.23473479	-0.74456284	0.45200555	0.06564758	-0.79588645	0.39644476	-0.12444815	-0.74354201	0.46027256	-0.063317392	-0.85149232	0.81538393	-0.24627212	-0.78280173	0.86595566	0.13287999	-0.78499387	0.92780372	-0.19881104	-0.73498591	0.95715187	0.041617013	-0.95455661	0.94960648	-0.037773896	-0.8372304	1.4140536	-0.20761866	-0.84454368	1.4020202	0.1141096	-0.92638579	1.4357472	-0.047337251	-0.90191917	1.0734002	-0.26488911	-0.9577617	1.0757387	0.15206306	-0.71711423	0.90680144	-0.26284874	-0.88473619	0.85477589	0.22644399
64	0.252	-1.0833533	0.077200765	-0.17291312	-0.66254472	0.038371757	-0.020665299	-1.1131988	0.21466959	-0.17846118	-0.79880706	0.054117595	0.02450212	-1.0708633	0.20734635	-0.10619453	-0.78774061	0.082587157	-0.059959762	-1.1585432	0.24683871	-0.11733808	-0.85481875	0.031612067	-0.019663548	-0.81815293	0.43836164	-0.23461484	-0.74367578	0.45231061	0.065765773	-0.78445639	0.39851849	-0.12429238	-0.74326397	0.46016224	-0.062857549	-0.84566602	0.81719032	-0.246007	-0.77859831	0.8666575	0.13326561	-0.77935663	0.92975834	-0.19845055	-0.7302797	0.95860226	0.042337956	-0.94903112	0.95099194	-0.037892356	-0.83226633	1.4157579	-0.20726437	-0.83919649	1.403553	0.11446519	-0.92086353	1.4370636	-0.047047484	-0.89835559	1.0751949	-0.26473213	-0.95064295	1.0763756	0.15353632	-0.71602246	0.90657957	-0.26389886	-0.87453832	0.85599838	0.22648775
65	0.256	-1.068026	0.077229285	-0.17356562	-0.66282121	0.038505642	-0.020406338	-1.0998054	0.21370838	-0.17833532	-0.79865797	0.054196688	0.024403953	-1.0572577	0.20643178	-0.10612348	-0.78802062	0.082859077	-0.059731629	-1.1457256	0.24468666	-0.11701384	-0.8547212	0.03197639	-0.020561618	-0.80687254	0.44025649	-0.23445409	-0.74253153	0.45271199	0.065965195	-0.77291974	0.40070631	-0.12404628	-0.74300702	0.46009783	-0.062443613	-0.83984333	0.81895284	-0.24583616	-0.77488226	0.86721985	0.13350978	-0.7734425	0.93176347	-0.19793503	-0.72556715	0.95996794	0.043026001	-0.94352376	0.95236447	-0.037998672	-0.82740257	1.4174361	-0.20696738	-0.83387362	1.4050629	0.11479871	-0.91535983	1.4383627	-0.046770203	-0.89443953	1.0769784	-0.26418094	-0.94344867	1.0769791	0.15488975	-0.71497506	0.90638297	-0.26498662	-0.86429053	0.8572357	0.22647451
66	0.26	-1.052035	0.077234598	-0.17430964	-0.66305919	0.038621511	-0.020173835	-1.0863192	0.21255295	-0.17824227	-0.79865566	0.054274442	0.0242885	-1.0434994	0.20540246	-0.10611076	-0.78827852	0.083127307	-0.059548135	-1.1327155	0.24227051	-0.11690334	-0.8546583	0.03232322	-0.021247664	-0.79553734	0.44222585	-0.23424868	-0.74136896	0.45310682	0.066308245	-0.76137177	0.40298314	-0.12373444	-0.742749	0.46007212	-0.062078397	-0.8339873	0.82067888	-0.2457215	-0.77151301	0.86765022	0.13365287	-0.76736445	0.93376902	-0.19731608	-0.72084381	0.96123604	0.043689843	-0.93803657	0.95371365	-0.038107386	-0.82271868	1.4190645	-0.20675589	-0.82855509	1.4065291	0.11509491	-0.90987456	1.4396344	-0.046500201	-0.89032899	1.0787701	-0.26342728	-0.93594278	1.0774774	0.15597392	-0.71396325	0.90621606	-0.26612365	-0.85397557	0.85847948	0.22639745
67	0.264	-1.0354991	0.077179314	-0.17512479	-0.66323933	0.038714905	-0.019979256	-1.0727104	0.21118676	-0.1782083	-0.79888962	0.054383881	0.024131964	-1.0296644	0.20426848	-0.10612093	-0.78851791	0.083376374	-0.059437581	-1.1196593	0.23960596	-0.11683653	-0.85468194	0.03252799	-0.021290899	-0.78420284	0.4442357	-0.23402046	-0.74038534	0.45340903	0.066738134	-0.74988924	0.4053251	-0.12337732	-0.74246332	0.46008081	-0.061743538	-0.82802974	0.82236506	-0.24560544	-0.76818313	0.86799919	0.13378854	-0.76134894	0.93571223	-0.19669387	-0.71610233	0.962419	0.044331831	-0.93256079	0.95503851	-0.038227413	-0.81810849	1.4206381	-0.20659164	-0.8232155	1.4079399	0.11535246	-0.90439697	1.440876	-0.046222875	-0.88635133	1.0805815	-0.26281988	-0.92809584	1.0778529	0.15675047	-0.71296239	0.90606609	-0.26731736	-0.84358497	0.85973936	0.2262557
68	0.268	-1.0186569	0.076979462	-0.17594184	-0.66334805	0.038785033	-0.019835703	-1.0589323	0.20962144	-0.17826568	-0.79935595	0.05454569	0.023935532	-1.015806	0.20302811	-0.10611461	-0.78872543	0.083596699	-0.059402613	-1.10664	0.23673031	-0.1167456	-0.85480492	0.032566159	-0.020618916	-0.77282455	0.44623186	-0.23380784	-0.7395942	0.45359174	0.067168713	-0.73847458	0.40771872	-0.12299262	-0.74208224	0.46013852	-0.061406609	-0.82187138	0.82400107	-0.24546319	-0.76459912	0.86833419	0.13400397	-0.75554839	0.93757217	-0.19613882	-0.71132743	0.96352238	0.044952039	-0.92708759	0.9563421	-0.038368523	-0.8134134	1.4221546	-0.20642506	-0.81783715	1.4092943	0.11557794	-0.89892373	1.4420836	-0.045930039	-0.88272167	1.0824085	-0.26259424	-0.92013424	1.0781654	0.15739632	-0.7119505	0.90591092	-0.26856925	-0.83309219	0.86102296	0.22605242
